<?xml version="1.0" encoding="UTF-8" standalone="no"?>
<svg
   width="24"
   height="24"
   fill-rule="evenodd"
   clip-rule="evenodd"
   version="1.1"
   id="svg4"
   sodipodi:docname="favicon.svg"
   inkscape:version="1.1.2 (b8e25be833, 2022-02-05)"
   xmlns:inkscape="http://www.inkscape.org/namespaces/inkscape"
   xmlns:sodipodi="http://sodipodi.sourceforge.net/DTD/sodipodi-0.dtd"
   xmlns="http://www.w3.org/2000/svg"
   xmlns:svg="http://www.w3.org/2000/svg">
  <defs
     id="defs8" />
  <sodipodi:namedview
     id="namedview6"
     pagecolor="#ffffff"
     bordercolor="#666666"
     borderopacity="1.0"
     inkscape:pageshadow="2"
     inkscape:pageopacity="0.0"
     inkscape:pagecheckerboard="0"
     showgrid="false"
     inkscape:zoom="21.625"
     inkscape:cx="12"
     inkscape:cy="8.300578"
     inkscape:window-width="1366"
     inkscape:window-height="740"
     inkscape:window-x="-8"
     inkscape:window-y="-8"
     inkscape:window-maximized="1"
     inkscape:current-layer="svg4" />
  <path
     d="M12.5 17.52c1.415-1.054 3.624-1.846 5.5-2v6.479c-1.739.263-3.755 1.104-5.5 2v-6.479zm-1 0c-1.415-1.054-3.624-1.846-5.5-2v6.479c1.739.263 3.755 1.104 5.5 2v-6.479zm-6.5 2.917c-2.049-.674-2.996-1.437-2.996-1.437l-.004-2.025c-.008-2.127.088-3.344 2.648-3.909 2.805-.619 5.799-1.317 4.241-3.521-3.901-5.523-.809-9.545 3.111-9.545 3.921 0 6.996 3.991 3.11 9.545-1.529 2.185 1.376 2.888 4.242 3.521 2.57.568 2.657 1.791 2.647 3.934l-.003 2s-.947.763-2.996 1.437v-6.003l-1.082.089c-2.054.169-4.36 1.002-5.918 2.128-1.559-1.126-3.863-1.959-5.918-2.128l-1.082-.089v6.003z"
     id="path2"
     style="fill:#2ad4ff" />
  <path
     style="fill:#2ad4ff;fill-opacity:1;stroke-width:0.0462428"
     d="M 4.421408,20.20523 C 3.7854766,19.969997 2.7990565,19.495611 2.3439427,19.206142 L 2.0289258,19.00578 2.0466613,17.202312 c 0.016452,-1.672935 0.024955,-1.829657 0.1174746,-2.165296 0.2074931,-0.752731 0.5748684,-1.194192 1.2787297,-1.536601 0.4204705,-0.204547 0.615399,-0.260781 2.4027141,-0.693148 2.3975079,-0.579978 3.389433,-1.169442 3.4806395,-2.068414 C 9.3636166,10.370249 9.2137568,9.9955343 8.748696,9.2947977 8.016388,8.1913831 7.4898617,7.0270405 7.255114,5.9919403 7.1353951,5.4640509 7.0918474,4.4992019 7.1651223,3.9980713 7.5481771,1.3783456 10.016954,-0.33104612 12.809441,0.08992096 c 2.042264,0.30787115 3.538328,1.65709014 3.966666,3.57732194 0.118286,0.5302722 0.104515,1.6397573 -0.02803,2.2586651 -0.21954,1.0250964 -0.720478,2.1728754 -1.399685,3.20704 -0.614239,0.935245 -0.765403,1.350706 -0.648767,1.783083 0.213031,0.789717 1.219478,1.346092 3.385937,1.871782 1.816631,0.440804 2.052874,0.508916 2.471469,0.71255 0.703976,0.342465 1.071331,0.78388 1.278836,1.536653 0.09257,0.33581 0.100981,0.491508 0.117013,2.165296 l 0.01727,1.803468 -0.268312,0.170502 c -0.604291,0.384004 -1.410053,0.768338 -2.268312,1.081945 l -0.427746,0.156297 v -3.007783 -3.007784 l -0.196531,0.02521 c -0.108093,0.01386 -0.467052,0.04775 -0.797688,0.07531 -1.284088,0.107016 -2.693263,0.451586 -3.861272,0.944153 -0.497074,0.209623 -1.434077,0.7009 -1.803468,0.94557 -0.316061,0.209345 -0.355024,0.223884 -0.439307,0.163923 -0.31564,-0.224554 -0.943641,-0.578555 -1.513901,-0.853378 C 8.985477,15.021124 7.3526747,14.589627 5.7572254,14.474496 5.5537572,14.459813 5.2989951,14.436833 5.1910873,14.423429 l -0.196196,-0.02437 -0.011896,3.004752 -0.011896,3.004751 z"
     id="path1894" />
  <path
     style="fill:#808000;fill-opacity:1;stroke-width:0.0462428"
     d="M 4.421408,20.20523 C 3.7854766,19.969997 2.7990565,19.495611 2.3439427,19.206142 L 2.0289258,19.00578 2.0466613,17.202312 c 0.016452,-1.672935 0.024955,-1.829657 0.1174746,-2.165296 0.1985152,-0.720161 0.5540181,-1.166782 1.1913802,-1.496737 0.4387115,-0.227116 0.769356,-0.332182 1.726719,-0.548682 C 7.9354696,12.34636 9.0643847,11.79087 9.3003778,10.916031 9.4155353,10.489136 9.2809799,10.106929 8.7121327,9.2451098 8.0157013,8.1899958 7.4500865,6.9226391 7.2380592,5.9421965 7.132579,5.4544407 7.095877,4.4716436 7.1653891,3.996248 7.3376176,2.8183702 7.8931135,1.8354246 8.7938025,1.1147842 10.567626,-0.30444991 13.285516,-0.33731595 15.111217,1.038391 c 0.816003,0.6148767 1.346613,1.4215139 1.638638,2.4910687 0.146576,0.53684 0.145573,1.7432756 -0.002,2.40551 -0.233062,1.0458696 -0.717801,2.154425 -1.398382,3.1979783 -0.653094,1.001407 -0.765579,1.333655 -0.621486,1.83568 0.06468,0.225358 0.126463,0.316559 0.385502,0.569082 0.506725,0.493979 1.388508,0.86466 2.967435,1.24744 1.854386,0.449559 2.05762,0.508253 2.479408,0.716052 0.70488,0.347268 1.068636,0.785251 1.275531,1.535814 0.0925,0.335561 0.101042,0.492752 0.117686,2.165296 l 0.01795,1.803468 -0.384592,0.24043 c -0.502064,0.313868 -1.319177,0.704106 -2.007253,0.958627 l -0.55075,0.203724 -0.0119,-3.003516 -0.0119,-3.003517 -0.219317,0.02476 c -0.120625,0.01362 -0.469029,0.04643 -0.774231,0.07291 -1.994353,0.173033 -4.086133,0.86848 -5.62687,1.870749 -0.35082,0.228212 -0.392835,0.244462 -0.477177,0.18456 -0.291588,-0.207096 -1.010912,-0.612943 -1.508426,-0.851064 -1.3840967,-0.66246 -2.9125878,-1.079752 -4.4106507,-1.204148 -0.3306358,-0.02746 -0.6894442,-0.06124 -0.797352,-0.07508 l -0.196196,-0.02516 -0.011896,3.004752 -0.011896,3.004751 z"
     id="path1933" />
  <path
     style="fill:#808000;fill-opacity:1;stroke-width:0.0462428"
     d="M 10.843931,23.650484 C 9.2169297,22.852586 7.3378284,22.188074 6.2080925,22.011097 L 6.0115607,21.98031 v -3.216194 -3.216194 l 0.3097999,0.03174 c 1.5099855,0.154702 3.4552209,0.843157 4.7653444,1.686543 l 0.381503,0.245591 v 3.20942 c 0,1.765181 -0.01561,3.207616 -0.03468,3.205412 -0.01908,-0.0022 -0.284393,-0.12647 -0.589595,-0.276144 z"
     id="path2009" />
  <path
     style="fill:#808000;fill-opacity:1;stroke-width:0.0462428"
     d="m 12.531792,20.726027 v -3.204608 l 0.378161,-0.24948 c 1.255254,-0.828112 3.252734,-1.536963 4.768687,-1.692277 l 0.309799,-0.03174 v 3.215512 3.215511 l -0.301247,0.05246 c -1.15322,0.200825 -2.75497,0.76858 -4.445881,1.575885 -0.37249,0.17784 -0.684514,0.323346 -0.693386,0.323346 -0.0089,0 -0.01613,-1.442074 -0.01613,-3.204609 z"
     id="path2048" />
</svg>
